<svg id="Layer_1" data-name="Layer 1" xmlns="http://www.w3.org/2000/svg" xmlns:xlink="http://www.w3.org/1999/xlink" viewBox="0 0 147.63 179.93"><defs><style>.cls-1{fill:none;}.cls-2{fill:#1c1651;}.cls-3,.cls-4{stroke:#fff;stroke-miterlimit:10;stroke-width:3px;}.cls-3{fill:url(#linear-gradient);}.cls-4{fill:url(#linear-gradient-2);}.cls-5{font-size:40px;fill:#231f20;font-family:AquireBold, Aquire;}</style><linearGradient id="linear-gradient" x1="157.39" y1="123.27" x2="224.82" y2="123.27" gradientUnits="userSpaceOnUse"><stop offset="0" stop-color="#46bfaf"/><stop offset="0.28" stop-color="#11bed3"/><stop offset="0.59" stop-color="#4a72b8"/><stop offset="0.89" stop-color="#8f278f"/></linearGradient><linearGradient id="linear-gradient-2" x1="168.72" y1="88.16" x2="224.82" y2="88.16" xlink:href="#linear-gradient"/></defs><line class="cls-1" x1="40.35" y1="73.82" x2="40.35" y2="73.82"/><circle class="cls-2" cx="73.82" cy="73.82" r="73.82"/><path class="cls-3" d="M189.39,111.65c1.79-9.56,9.59-14.28,17.43-14.34,8.34,0,16.72,5.22,17.93,15.56v-.48c0,.16.05.32.07.48V88.15C223.13,71.23,210.11,63,197.06,63c-13.89,0-27.85,9.22-28.27,27.22h0v23.27h-6.37c18.09,21.37,14.65,52.53-5,70.06l.1,0,0,0c39.48-13.05,28-33.59,46.81-47.9-.61,0-1.23,0-1.86,0a35.32,35.32,0,0,0-13,2.8C189.37,136.82,189.4,115.9,189.39,111.65Z" transform="translate(-117.42 -55.35)"/><path class="cls-4" d="M197,63h-.09c-13.46,0-27,8.69-28.17,25.56v24.76a16.12,16.12,0,0,1,.45-3c2.37-12.62,13.82-22.19,27.6-22.19,14,0,25.65,9.93,27.72,22.89a17.72,17.72,0,0,1,.26,1.8v-.46c0,.16.05.32.07.48V88.15C223.12,71.24,210.07,63,197,63Z" transform="translate(-117.42 -55.35)"/><text class="cls-5" transform="translate(46.3 179.93)">FH</text></svg>