<svg id="Layer_1" data-name="Layer 1" xmlns="http://www.w3.org/2000/svg" xmlns:xlink="http://www.w3.org/1999/xlink" viewBox="0 0 231.6 183.01"><defs><style>.cls-1{fill:none;}.cls-2{fill:#1c1651;}.cls-3,.cls-4{stroke:#fff;stroke-miterlimit:10;stroke-width:3px;}.cls-3{fill:url(#linear-gradient);}.cls-4{fill:url(#linear-gradient-2);}.cls-5{font-size:40px;fill:#231f20;font-family:AquireBold, Aquire;}.cls-6{letter-spacing:-0.04em;}</style><linearGradient id="linear-gradient" x1="142.76" y1="113.71" x2="210.19" y2="113.71" gradientUnits="userSpaceOnUse"><stop offset="0" stop-color="#46bfaf"/><stop offset="0.28" stop-color="#11bed3"/><stop offset="0.59" stop-color="#4a72b8"/><stop offset="0.89" stop-color="#8f278f"/></linearGradient><linearGradient id="linear-gradient-2" x1="154.09" y1="78.59" x2="210.19" y2="78.59" xlink:href="#linear-gradient"/></defs><line class="cls-1" x1="93.56" y1="83.38" x2="93.56" y2="83.38"/><circle class="cls-2" cx="112.4" cy="73.82" r="73.82"/><path class="cls-3" d="M174.77,102.09c1.78-9.56,9.58-14.29,17.42-14.34,8.35,0,16.72,5.21,17.93,15.56v-.48c0,.16,0,.32.07.48V78.59c-1.69-16.92-14.7-25.15-27.76-25.16-13.89,0-27.84,9.23-28.26,27.23h0v23.27h-6.38c18.09,21.36,14.65,52.52-5,70l.1,0,0,0c39.48-13,28-33.58,46.8-47.89-.61,0-1.23,0-1.86,0a35.32,35.32,0,0,0-13,2.8C174.74,127.26,174.78,106.34,174.77,102.09Z" transform="translate(-64.2 -45.79)"/><path class="cls-4" d="M182.36,53.43h-.1c-13.46,0-27,8.7-28.17,25.57v24.76a17,17,0,0,1,.45-3c2.37-12.62,13.82-22.2,27.6-22.2,14,0,25.65,9.93,27.72,22.9a15.3,15.3,0,0,1,.26,1.8v-.46c0,.16,0,.32.07.48V78.59C208.49,61.67,195.45,53.44,182.36,53.43Z" transform="translate(-64.2 -45.79)"/><text class="cls-5" transform="translate(0 183.01)">FI<tspan class="cls-6" x="37.2" y="0">R</tspan><tspan x="65" y="0">EHOUND</tspan></text></svg>